<?xml version="1.0" standalone="no"?>
<!DOCTYPE svg PUBLIC "-//W3C//DTD SVG 20010904//EN"
 "http://www.w3.org/TR/2001/REC-SVG-20010904/DTD/svg10.dtd">
<svg version="1.0" xmlns="http://www.w3.org/2000/svg"
 width="500.000000pt" height="500.000000pt" viewBox="0 0 500.000000 500.000000"
 preserveAspectRatio="xMidYMid meet">
<metadata>
Created by potrace 1.16, written by Peter Selinger 2001-2019
</metadata>
<g transform="translate(0.000000,500.000000) scale(0.100000,-0.100000)"
fill="#000000" stroke="none">
<path d="M0 2500 l0 -2500 2500 0 2500 0 0 2500 0 2500 -2500 0 -2500 0 0
-2500z m900 380 l0 -110 -232 2 -233 3 -3 94 c-1 52 -1 100 2 108 4 10 54 13
236 13 l230 0 0 -110z m925 95 c210 -44 371 -193 442 -410 22 -68 26 -99 27
-205 1 -207 -51 -346 -179 -476 -123 -125 -276 -181 -470 -171 -209 12 -365
100 -475 268 -113 175 -132 458 -44 658 116 262 400 399 699 336z m853 -268
l2 -278 -122 3 -123 3 -3 265 c-1 146 0 271 3 278 3 10 33 12 122 10 l118 -3
3 -278z m727 -357 l0 -635 -120 0 -120 0 -3 118 -3 117 -239 0 -239 0 -3 -117
-3 -118 -120 0 -120 0 -3 238 -2 237 365 0 365 0 0 393 c0 217 3 397 7 401 4
3 59 5 122 4 l116 -3 0 -635z m767 221 l293 -420 5 417 5 417 118 3 117 3 0
-641 0 -640 -118 0 -118 0 -295 422 -294 421 -3 -266 -2 -267 -120 0 -120 0 0
485 0 485 119 0 119 0 294 -419z m-3274 -309 l-3 -288 -33 -67 c-39 -79 -100
-133 -189 -168 -50 -19 -78 -23 -193 -23 l-135 -1 -3 104 c-2 67 1 108 9 117
8 10 38 14 113 14 116 0 152 14 179 73 14 30 17 72 17 281 l0 246 121 0 120 0
-3 -288z"/>
<path d="M1568 2747 c-102 -38 -168 -98 -212 -192 -85 -181 -48 -409 87 -530
66 -60 139 -86 242 -86 110 0 179 26 249 94 198 195 152 571 -86 694 -45 22
-68 27 -148 30 -63 2 -107 -1 -132 -10z m168 -293 c42 -20 64 -59 64 -115 0
-93 -116 -145 -189 -83 -43 36 -58 89 -38 137 17 40 68 77 105 77 13 0 39 -7
58 -16z"/>
</g>
</svg>
