<?xml version="1.0" encoding="utf-8"?>
<!-- Generator: Adobe Illustrator 27.5.0, SVG Export Plug-In . SVG Version: 6.00 Build 0)  -->
<svg version="1.1" xmlns="http://www.w3.org/2000/svg" xmlns:xlink="http://www.w3.org/1999/xlink" x="0px" y="0px"
	 viewBox="0 0 48 48" style="enable-background:new 0 0 48 48;" xml:space="preserve">
<g id="_x32_5_resume__x2C__cv__x2C__bio__x2C__data__x2C__job_application">
</g>
<g id="_x32_4_internet__x2C__browser__x2C__website">
</g>
<g id="_x32_3_notebook__x2C__contact_us__x2C__book">
</g>
<g id="_x32_2_job__x2C__job_vacancy__x2C__personalia">
</g>
<g id="_x32_1_chart__x2C__clipboard__x2C__presentation__x2C__analisys">
</g>
<g id="_x32_0_calculation__x2C__math__x2C__calculate">
</g>
<g id="_x31_9_identification__x2C__identity_card__x2C__id_card__x2C__student_card__x2C__employee_card">
</g>
<g id="_x31_8_web_hosting__x2C__internet_connection__x2C__networking__x2C__internet_server">
</g>
<g id="_x31_7_biodata__x2C__job_application__x2C__job_profile">
	<path fill="#ffffff" d="M40,14v26c0,3.3-2.7,6-6,6H14c-3.3,0-6-2.7-6-6V26c0-1.1,0.9-2,2-2s2,0.9,2,2v14c0,1.1,0.9,2,2,2h20c1.1,0,2-0.9,2-2V16H26
		c-1.1,0-2-0.9-2-2V6H14c-1.1,0-2,0.9-2,2v10c0,1.1-0.9,2-2,2s-2-0.9-2-2V8c0-3.3,2.7-6,6-6h12c0.5,0,0.8,0.2,1.2,0.4
		c0,0,0.1,0,0.1,0l12,10c0,0,0,0,0,0.1C39.7,12.9,40,13.4,40,14z M18,26h12c1.1,0,2-0.9,2-2s-0.9-2-2-2H18c-1.1,0-2,0.9-2,2
		S16.9,26,18,26z M18,34h12c1.1,0,2-0.9,2-2s-0.9-2-2-2H18c-1.1,0-2,0.9-2,2S16.9,34,18,34z"/>
</g>
<g id="_x31_6_rocket__x2C__planning__x2C__project__x2C__startup">
</g>
<g id="_x31_5_web_hosting__x2C__database__x2C__network_server__x2C__server_connection">
</g>
<g id="_x31_4_folder__x2C__file_storage__x2C__documents__x2C__data_storage__x2C__data_folder">
</g>
<g id="_x31_3_view__x2C__eye__x2C__look__x2C__human_eye">
</g>
<g id="_x31_2_folder__x2C__file_storage__x2C__documents__x2C__data_storage">
</g>
<g id="_x31_1_computer__x2C__chart__x2C__analysis">
</g>
<g id="_x31_0_chat__x2C__message__x2C__personal_chat">
</g>
<g id="_x30_9_report__x2C__exam__x2C__clipboard">
</g>
<g id="_x30_8_file__x2C__arcihve__x2C__community">
</g>
<g id="_x30_7_resume__x2C__cv__x2C__curriculum_vitae__x2C__job_profile__x2C__informations">
</g>
<g id="_x30_6_add_user__x2C__website_user__x2C__web_profile__x2C__employee_account">
</g>
<g id="_x30_5_search_shopping__x2C__online_search__x2C__bag">
</g>
<g id="_x30_4_format_worker__x2C__file__x2C__archive">
</g>
<g id="_x30_3_backup__x2C__sharing_info__x2C__folder_sharing__x2C__folder_sync__x2C__data_interchange">
</g>
<g id="_x30_2_card__x2C__identity_card__x2C__id_card__x2C__job_card__x2C__identity_badge">
</g>
<g id="_x30_1_portfolio__x2C__business_bag__x2C__business_case__x2C__documents_bag__x2C__project_case">
</g>
</svg>
