<?xml version="1.0" encoding="utf-8"?>
<!-- Generator: Adobe Illustrator 27.5.0, SVG Export Plug-In . SVG Version: 6.00 Build 0)  -->
<svg version="1.1" xmlns="http://www.w3.org/2000/svg" xmlns:xlink="http://www.w3.org/1999/xlink" x="0px" y="0px"
	 viewBox="0 0 48 48" style="enable-background:new 0 0 48 48;" xml:space="preserve">
<g id="_x32_5_resume__x2C__cv__x2C__bio__x2C__data__x2C__job_application">
</g>
<g id="_x32_4_internet__x2C__browser__x2C__website">
</g>
<g id="_x32_3_notebook__x2C__contact_us__x2C__book">
</g>
<g id="_x32_2_job__x2C__job_vacancy__x2C__personalia">
</g>
<g id="_x32_1_chart__x2C__clipboard__x2C__presentation__x2C__analisys">
</g>
<g id="_x32_0_calculation__x2C__math__x2C__calculate">
</g>
<g id="_x31_9_identification__x2C__identity_card__x2C__id_card__x2C__student_card__x2C__employee_card">
</g>
<g id="_x31_8_web_hosting__x2C__internet_connection__x2C__networking__x2C__internet_server">
</g>
<g id="_x31_7_biodata__x2C__job_application__x2C__job_profile">
</g>
<g id="_x31_6_rocket__x2C__planning__x2C__project__x2C__startup">
</g>
<g id="_x31_5_web_hosting__x2C__database__x2C__network_server__x2C__server_connection">
</g>
<g id="_x31_4_folder__x2C__file_storage__x2C__documents__x2C__data_storage__x2C__data_folder">
	<path fill="#ffffff" d="M46,24v16c0,3.3-2.7,6-6,6h-4c-1.1,0-2-0.9-2-2s0.9-2,2-2h4c1.1,0,2-0.9,2-2V24c0-1.1-0.9-2-2-2H22c-0.8,0-1.4-0.4-1.8-1.1
		L16.8,14H8c-1.1,0-2,0.9-2,2v24c0,1.1,0.9,2,2,2h20c1.1,0,2,0.9,2,2s-0.9,2-2,2H8c-3.3,0-6-2.7-6-6V16c0-3.3,2.7-6,6-6h10
		c0.8,0,1.4,0.4,1.8,1.1l3.4,6.9H40C43.3,18,46,20.7,46,24z M18,8H8c0-3.3,2.7-6,6-6h22c3.3,0,6,2.7,6,6v8.3c-0.6-0.2-1.3-0.3-2-0.3
		H24.5l-2.9-5.8C20.9,8.8,19.5,8,18,8z M32,8c0,1.1,0.9,2,2,2s2-0.9,2-2s-0.9-2-2-2S32,6.9,32,8z M26,8c0,1.1,0.9,2,2,2s2-0.9,2-2
		s-0.9-2-2-2S26,6.9,26,8z M12,34c-1.1,0-2,0.9-2,2s0.9,2,2,2h8c1.1,0,2-0.9,2-2s-0.9-2-2-2H12z"/>
</g>
<g id="_x31_3_view__x2C__eye__x2C__look__x2C__human_eye">
</g>
<g id="_x31_2_folder__x2C__file_storage__x2C__documents__x2C__data_storage">
</g>
<g id="_x31_1_computer__x2C__chart__x2C__analysis">
</g>
<g id="_x31_0_chat__x2C__message__x2C__personal_chat">
</g>
<g id="_x30_9_report__x2C__exam__x2C__clipboard">
</g>
<g id="_x30_8_file__x2C__arcihve__x2C__community">
</g>
<g id="_x30_7_resume__x2C__cv__x2C__curriculum_vitae__x2C__job_profile__x2C__informations">
</g>
<g id="_x30_6_add_user__x2C__website_user__x2C__web_profile__x2C__employee_account">
</g>
<g id="_x30_5_search_shopping__x2C__online_search__x2C__bag">
</g>
<g id="_x30_4_format_worker__x2C__file__x2C__archive">
</g>
<g id="_x30_3_backup__x2C__sharing_info__x2C__folder_sharing__x2C__folder_sync__x2C__data_interchange">
</g>
<g id="_x30_2_card__x2C__identity_card__x2C__id_card__x2C__job_card__x2C__identity_badge">
</g>
<g id="_x30_1_portfolio__x2C__business_bag__x2C__business_case__x2C__documents_bag__x2C__project_case">
</g>
</svg>
